<svg width="1330" height="107" viewBox="0 0 1330 107" fill="none" xmlns="http://www.w3.org/2000/svg">
<line x1="4.37114e-08" y1="45.5" x2="1330" y2="45.5001" stroke="black" stroke-dasharray="10 10"/>
<line x1="846.5" y1="28" x2="846.5" y2="78" stroke="black"/>
<line x1="966.5" y1="28" x2="966.5" y2="78" stroke="black"/>
<line x1="1086.5" y1="28" x2="1086.5" y2="78" stroke="black"/>
<line x1="486.5" y1="28" x2="486.5" y2="78" stroke="black"/>
<line x1="1206.5" y1="28" x2="1206.5" y2="78" stroke="black"/>
<line x1="606.5" y1="28" x2="606.5" y2="78" stroke="black"/>
<line x1="726.5" y1="28" x2="726.5" y2="78" stroke="black"/>
<rect x="112" y="13" width="28" height="7" fill="black"/>
<rect x="232" y="97" width="28" height="7" fill="black"/>
<rect x="352" y="3" width="28" height="7" fill="black"/>
<rect x="472" y="97" width="28" height="7" fill="black"/>
<rect x="591" y="3" width="28" height="7" fill="black"/>
<rect x="1192" y="13" width="28" height="7" fill="black"/>
<rect x="832" y="13" width="28" height="7" fill="black"/>
<path d="M106.684 95.684C106.724 95.628 106.772 95.6 106.828 95.6H107.236C107.316 95.6 107.356 95.64 107.356 95.72V103.88C107.356 103.96 107.316 104 107.236 104H106.84C106.76 104 106.72 103.96 106.72 103.88V96.836C106.72 96.812 106.712 96.8 106.696 96.8C106.68 96.792 106.668 96.8 106.66 96.824L104.548 100.088C104.508 100.144 104.46 100.172 104.404 100.172H104.2C104.144 100.172 104.096 100.144 104.056 100.088L101.92 96.836C101.912 96.812 101.9 96.804 101.884 96.812C101.868 96.82 101.86 96.836 101.86 96.86V103.88C101.86 103.96 101.82 104 101.74 104H101.344C101.264 104 101.224 103.96 101.224 103.88V95.72C101.224 95.64 101.264 95.6 101.344 95.6H101.764C101.82 95.6 101.868 95.628 101.908 95.684L104.26 99.284C104.268 99.292 104.28 99.296 104.296 99.296C104.312 99.296 104.324 99.292 104.332 99.284L106.684 95.684ZM115.646 96.044C115.646 96.124 115.606 96.164 115.526 96.164H110.978C110.946 96.164 110.93 96.18 110.93 96.212V99.452C110.93 99.484 110.946 99.5 110.978 99.5H114.206C114.286 99.5 114.326 99.54 114.326 99.62V99.944C114.326 100.024 114.286 100.064 114.206 100.064H110.978C110.946 100.064 110.93 100.08 110.93 100.112V103.388C110.93 103.42 110.946 103.436 110.978 103.436H115.526C115.606 103.436 115.646 103.476 115.646 103.556V103.88C115.646 103.96 115.606 104 115.526 104H110.414C110.334 104 110.294 103.96 110.294 103.88V95.72C110.294 95.64 110.334 95.6 110.414 95.6H115.526C115.606 95.6 115.646 95.64 115.646 95.72V96.044ZM118.23 104C118.15 104 118.11 103.96 118.11 103.88V95.72C118.11 95.64 118.15 95.6 118.23 95.6H121.014C121.782 95.6 122.39 95.804 122.838 96.212C123.286 96.612 123.51 97.16 123.51 97.856V101.744C123.51 102.44 123.286 102.992 122.838 103.4C122.39 103.8 121.782 104 121.014 104H118.23ZM118.746 103.388C118.746 103.42 118.762 103.436 118.794 103.436H121.05C121.61 103.436 122.05 103.28 122.37 102.968C122.698 102.648 122.866 102.216 122.874 101.672V97.928C122.874 97.384 122.71 96.956 122.382 96.644C122.062 96.324 121.618 96.164 121.05 96.164H118.794C118.762 96.164 118.746 96.18 118.746 96.212V103.388ZM126.128 104C126.048 104 126.008 103.96 126.008 103.88V95.72C126.008 95.64 126.048 95.6 126.128 95.6H126.524C126.604 95.6 126.644 95.64 126.644 95.72V103.88C126.644 103.96 126.604 104 126.524 104H126.128ZM129.702 104C129.622 104 129.582 103.96 129.582 103.88V95.72C129.582 95.64 129.622 95.6 129.702 95.6H132.486C133.254 95.6 133.862 95.804 134.31 96.212C134.758 96.612 134.982 97.16 134.982 97.856V101.744C134.982 102.44 134.758 102.992 134.31 103.4C133.862 103.8 133.254 104 132.486 104H129.702ZM130.218 103.388C130.218 103.42 130.234 103.436 130.266 103.436H132.522C133.082 103.436 133.522 103.28 133.842 102.968C134.17 102.648 134.338 102.216 134.346 101.672V97.928C134.346 97.384 134.182 96.956 133.854 96.644C133.534 96.324 133.09 96.164 132.522 96.164H130.266C130.234 96.164 130.218 96.18 130.218 96.212V103.388ZM142.141 104C142.069 104 142.021 103.968 141.997 103.904L141.481 102.308C141.473 102.284 141.457 102.272 141.433 102.272H137.689C137.665 102.272 137.649 102.284 137.641 102.308L137.137 103.904C137.113 103.968 137.065 104 136.993 104H136.573C136.485 104 136.453 103.956 136.477 103.868L139.141 95.696C139.165 95.632 139.213 95.6 139.285 95.6H139.825C139.897 95.6 139.945 95.632 139.969 95.696L142.645 103.868L142.657 103.916C142.657 103.972 142.621 104 142.549 104H142.141ZM137.833 101.684C137.825 101.7 137.825 101.716 137.833 101.732C137.849 101.74 137.865 101.744 137.881 101.744H141.241C141.257 101.744 141.269 101.74 141.277 101.732C141.293 101.716 141.297 101.7 141.289 101.684L139.597 96.464C139.589 96.448 139.577 96.44 139.561 96.44C139.545 96.44 139.533 96.448 139.525 96.464L137.833 101.684ZM146.709 104.096C145.829 104.096 145.133 103.9 144.621 103.508C144.109 103.108 143.853 102.576 143.853 101.912V101.516C143.853 101.436 143.893 101.396 143.973 101.396H144.345C144.425 101.396 144.465 101.436 144.465 101.516V101.876C144.465 102.372 144.669 102.772 145.077 103.076C145.485 103.38 146.045 103.532 146.757 103.532C147.421 103.532 147.929 103.396 148.281 103.124C148.633 102.844 148.809 102.46 148.809 101.972C148.809 101.676 148.729 101.42 148.569 101.204C148.417 100.98 148.177 100.772 147.849 100.58C147.529 100.388 147.073 100.168 146.481 99.92C145.857 99.656 145.385 99.436 145.065 99.26C144.753 99.084 144.501 98.864 144.309 98.6C144.117 98.328 144.021 97.98 144.021 97.556C144.021 96.9 144.245 96.396 144.693 96.044C145.149 95.684 145.777 95.504 146.577 95.504C147.449 95.504 148.133 95.704 148.629 96.104C149.125 96.504 149.373 97.04 149.373 97.712V97.988C149.373 98.068 149.333 98.108 149.253 98.108H148.857C148.777 98.108 148.737 98.068 148.737 97.988V97.748C148.737 97.244 148.545 96.84 148.161 96.536C147.777 96.224 147.237 96.068 146.541 96.068C145.933 96.068 145.465 96.196 145.137 96.452C144.809 96.7 144.645 97.06 144.645 97.532C144.645 97.852 144.721 98.112 144.873 98.312C145.025 98.512 145.241 98.688 145.521 98.84C145.809 98.984 146.249 99.176 146.841 99.416C147.433 99.656 147.909 99.888 148.269 100.112C148.637 100.328 148.925 100.584 149.133 100.88C149.341 101.176 149.445 101.532 149.445 101.948C149.445 102.596 149.205 103.116 148.725 103.508C148.245 103.9 147.573 104.096 146.709 104.096Z" fill="black"/>
<path d="M200.204 11C200.132 11 200.084 10.972 200.06 10.916L198.224 7.1C198.216 7.076 198.2 7.064 198.176 7.064H195.908C195.876 7.064 195.86 7.08 195.86 7.112V10.88C195.86 10.96 195.82 11 195.74 11H195.344C195.264 11 195.224 10.96 195.224 10.88V2.72C195.224 2.64 195.264 2.6 195.344 2.6H198.368C199.04 2.6 199.58 2.808 199.988 3.224C200.404 3.64 200.612 4.184 200.612 4.856C200.612 5.424 200.456 5.904 200.144 6.296C199.832 6.68 199.412 6.92 198.884 7.016C198.844 7.032 198.832 7.052 198.848 7.076L200.684 10.856C200.692 10.872 200.696 10.892 200.696 10.916C200.696 10.972 200.664 11 200.6 11H200.204ZM195.908 3.164C195.876 3.164 195.86 3.18 195.86 3.212V6.488C195.86 6.52 195.876 6.536 195.908 6.536H198.308C198.804 6.536 199.204 6.38 199.508 6.068C199.82 5.756 199.976 5.352 199.976 4.856C199.976 4.352 199.82 3.944 199.508 3.632C199.204 3.32 198.804 3.164 198.308 3.164H195.908ZM208.404 3.044C208.404 3.124 208.364 3.164 208.284 3.164H203.736C203.704 3.164 203.688 3.18 203.688 3.212V6.452C203.688 6.484 203.704 6.5 203.736 6.5H206.964C207.044 6.5 207.084 6.54 207.084 6.62V6.944C207.084 7.024 207.044 7.064 206.964 7.064H203.736C203.704 7.064 203.688 7.08 203.688 7.112V10.388C203.688 10.42 203.704 10.436 203.736 10.436H208.284C208.364 10.436 208.404 10.476 208.404 10.556V10.88C208.404 10.96 208.364 11 208.284 11H203.172C203.092 11 203.052 10.96 203.052 10.88V2.72C203.052 2.64 203.092 2.6 203.172 2.6H208.284C208.364 2.6 208.404 2.64 208.404 2.72V3.044ZM213.34 11.108C212.796 11.108 212.316 11 211.9 10.784C211.484 10.568 211.16 10.264 210.928 9.872C210.704 9.472 210.592 9.016 210.592 8.504V5.084C210.592 4.572 210.704 4.124 210.928 3.74C211.16 3.348 211.484 3.044 211.9 2.828C212.316 2.612 212.796 2.504 213.34 2.504C213.876 2.504 214.352 2.612 214.768 2.828C215.184 3.036 215.504 3.332 215.728 3.716C215.96 4.1 216.076 4.544 216.076 5.048V5.06C216.076 5.1 216.064 5.132 216.04 5.156C216.016 5.18 215.988 5.192 215.956 5.192L215.56 5.216C215.48 5.216 215.44 5.176 215.44 5.096V5.06C215.44 4.46 215.248 3.98 214.864 3.62C214.48 3.252 213.972 3.068 213.34 3.068C212.7 3.068 212.188 3.252 211.804 3.62C211.42 3.98 211.228 4.46 211.228 5.06V8.54C211.228 9.14 211.42 9.624 211.804 9.992C212.196 10.36 212.708 10.544 213.34 10.544C213.972 10.544 214.48 10.36 214.864 9.992C215.248 9.624 215.44 9.14 215.44 8.54V8.516C215.44 8.444 215.48 8.408 215.56 8.408L215.956 8.432C216.036 8.432 216.076 8.468 216.076 8.54C216.076 9.044 215.96 9.492 215.728 9.884C215.504 10.268 215.184 10.568 214.768 10.784C214.352 11 213.876 11.108 213.34 11.108ZM221.133 11.096C220.581 11.096 220.093 10.984 219.669 10.76C219.253 10.528 218.929 10.208 218.697 9.8C218.473 9.384 218.361 8.908 218.361 8.372V5.228C218.361 4.692 218.473 4.22 218.697 3.812C218.929 3.396 219.253 3.076 219.669 2.852C220.093 2.62 220.581 2.504 221.133 2.504C221.685 2.504 222.173 2.62 222.597 2.852C223.021 3.076 223.349 3.396 223.581 3.812C223.813 4.22 223.929 4.692 223.929 5.228V8.372C223.929 8.908 223.813 9.384 223.581 9.8C223.349 10.208 223.021 10.528 222.597 10.76C222.173 10.984 221.685 11.096 221.133 11.096ZM221.133 10.544C221.781 10.544 222.301 10.348 222.693 9.956C223.093 9.564 223.293 9.044 223.293 8.396V5.216C223.293 4.576 223.093 4.06 222.693 3.668C222.301 3.268 221.781 3.068 221.133 3.068C220.493 3.068 219.977 3.268 219.585 3.668C219.193 4.06 218.997 4.576 218.997 5.216V8.396C218.997 9.044 219.193 9.564 219.585 9.956C219.977 10.348 220.493 10.544 221.133 10.544ZM232.042 2.684C232.082 2.628 232.13 2.6 232.186 2.6H232.594C232.674 2.6 232.714 2.64 232.714 2.72V10.88C232.714 10.96 232.674 11 232.594 11H232.198C232.118 11 232.078 10.96 232.078 10.88V3.836C232.078 3.812 232.07 3.8 232.054 3.8C232.038 3.792 232.026 3.8 232.018 3.824L229.906 7.088C229.866 7.144 229.818 7.172 229.762 7.172H229.558C229.502 7.172 229.454 7.144 229.414 7.088L227.278 3.836C227.27 3.812 227.258 3.804 227.242 3.812C227.226 3.82 227.218 3.836 227.218 3.86V10.88C227.218 10.96 227.178 11 227.098 11H226.702C226.622 11 226.582 10.96 226.582 10.88V2.72C226.582 2.64 226.622 2.6 226.702 2.6H227.122C227.178 2.6 227.226 2.628 227.266 2.684L229.618 6.284C229.626 6.292 229.638 6.296 229.654 6.296C229.67 6.296 229.682 6.292 229.69 6.284L232.042 2.684ZM241.003 3.044C241.003 3.124 240.963 3.164 240.883 3.164H236.335C236.303 3.164 236.287 3.18 236.287 3.212V6.452C236.287 6.484 236.303 6.5 236.335 6.5H239.563C239.643 6.5 239.683 6.54 239.683 6.62V6.944C239.683 7.024 239.643 7.064 239.563 7.064H236.335C236.303 7.064 236.287 7.08 236.287 7.112V10.388C236.287 10.42 236.303 10.436 236.335 10.436H240.883C240.963 10.436 241.003 10.476 241.003 10.556V10.88C241.003 10.96 240.963 11 240.883 11H235.771C235.691 11 235.651 10.96 235.651 10.88V2.72C235.651 2.64 235.691 2.6 235.771 2.6H240.883C240.963 2.6 241.003 2.64 241.003 2.72V3.044ZM248.531 2.72C248.531 2.64 248.571 2.6 248.651 2.6H249.047C249.127 2.6 249.167 2.64 249.167 2.72V10.88C249.167 10.96 249.127 11 249.047 11H248.651C248.595 11 248.547 10.972 248.507 10.916L244.163 3.872C244.155 3.848 244.143 3.84 244.127 3.848C244.111 3.848 244.103 3.86 244.103 3.884V10.88C244.103 10.96 244.063 11 243.983 11H243.587C243.507 11 243.467 10.96 243.467 10.88V2.72C243.467 2.64 243.507 2.6 243.587 2.6H243.995C244.051 2.6 244.099 2.628 244.139 2.684L248.471 9.728C248.479 9.752 248.491 9.764 248.507 9.764C248.523 9.756 248.531 9.74 248.531 9.716V2.72ZM252.024 11C251.944 11 251.904 10.96 251.904 10.88V2.72C251.904 2.64 251.944 2.6 252.024 2.6H254.808C255.576 2.6 256.184 2.804 256.632 3.212C257.08 3.612 257.304 4.16 257.304 4.856V8.744C257.304 9.44 257.08 9.992 256.632 10.4C256.184 10.8 255.576 11 254.808 11H252.024ZM252.54 10.388C252.54 10.42 252.556 10.436 252.588 10.436H254.844C255.404 10.436 255.844 10.28 256.164 9.968C256.492 9.648 256.66 9.216 256.668 8.672V4.928C256.668 4.384 256.504 3.956 256.176 3.644C255.856 3.324 255.412 3.164 254.844 3.164H252.588C252.556 3.164 252.54 3.18 252.54 3.212V10.388ZM264.464 11C264.392 11 264.344 10.968 264.32 10.904L263.804 9.308C263.796 9.284 263.78 9.272 263.756 9.272H260.012C259.988 9.272 259.972 9.284 259.964 9.308L259.46 10.904C259.436 10.968 259.388 11 259.316 11H258.896C258.808 11 258.776 10.956 258.8 10.868L261.464 2.696C261.488 2.632 261.536 2.6 261.608 2.6H262.148C262.22 2.6 262.268 2.632 262.292 2.696L264.968 10.868L264.98 10.916C264.98 10.972 264.944 11 264.872 11H264.464ZM260.156 8.684C260.148 8.7 260.148 8.716 260.156 8.732C260.172 8.74 260.188 8.744 260.204 8.744H263.564C263.58 8.744 263.592 8.74 263.6 8.732C263.616 8.716 263.62 8.7 263.612 8.684L261.92 3.464C261.912 3.448 261.9 3.44 261.884 3.44C261.868 3.44 261.856 3.448 261.848 3.464L260.156 8.684ZM272.229 5.108C272.229 5.124 272.217 5.144 272.193 5.168C272.169 5.184 272.141 5.192 272.109 5.192L271.713 5.216C271.633 5.216 271.593 5.176 271.593 5.096V5.06C271.593 4.46 271.401 3.98 271.017 3.62C270.633 3.252 270.125 3.068 269.493 3.068C268.853 3.068 268.341 3.252 267.957 3.62C267.573 3.98 267.381 4.46 267.381 5.06V8.54C267.381 9.14 267.573 9.624 267.957 9.992C268.349 10.36 268.861 10.544 269.493 10.544C270.125 10.544 270.633 10.36 271.017 9.992C271.401 9.624 271.593 9.14 271.593 8.54V8.516C271.593 8.444 271.633 8.408 271.713 8.408L272.109 8.432C272.189 8.432 272.229 8.468 272.229 8.54C272.229 9.044 272.113 9.492 271.881 9.884C271.657 10.268 271.337 10.568 270.921 10.784C270.505 11 270.029 11.108 269.493 11.108H269.433C269.417 11.108 269.405 11.116 269.397 11.132C269.389 11.148 269.393 11.16 269.409 11.168C269.825 11.528 270.033 11.896 270.033 12.272C270.033 12.368 270.021 12.456 269.997 12.536C269.941 12.784 269.817 12.964 269.625 13.076C269.441 13.196 269.229 13.256 268.989 13.256C268.837 13.256 268.689 13.236 268.545 13.196C268.473 13.188 268.445 13.14 268.461 13.052L268.497 12.884C268.505 12.804 268.553 12.776 268.641 12.8C268.753 12.816 268.837 12.824 268.893 12.824C269.085 12.824 269.237 12.772 269.349 12.668C269.469 12.572 269.529 12.42 269.529 12.212C269.529 11.884 269.329 11.54 268.929 11.18L268.761 11.036L268.737 11.024C268.121 10.888 267.633 10.596 267.273 10.148C266.921 9.7 266.745 9.152 266.745 8.504V5.084C266.745 4.572 266.857 4.124 267.081 3.74C267.313 3.348 267.637 3.044 268.053 2.828C268.469 2.612 268.949 2.504 269.493 2.504C270.029 2.504 270.505 2.612 270.921 2.828C271.337 3.036 271.657 3.332 271.881 3.716C272.113 4.1 272.229 4.544 272.229 5.048V5.108ZM277.286 11.096C276.734 11.096 276.246 10.984 275.822 10.76C275.406 10.528 275.082 10.208 274.85 9.8C274.626 9.384 274.514 8.908 274.514 8.372V5.228C274.514 4.692 274.626 4.22 274.85 3.812C275.082 3.396 275.406 3.076 275.822 2.852C276.246 2.62 276.734 2.504 277.286 2.504C277.838 2.504 278.326 2.62 278.75 2.852C279.174 3.076 279.502 3.396 279.734 3.812C279.966 4.22 280.082 4.692 280.082 5.228V8.372C280.082 8.908 279.966 9.384 279.734 9.8C279.502 10.208 279.174 10.528 278.75 10.76C278.326 10.984 277.838 11.096 277.286 11.096ZM277.286 10.544C277.934 10.544 278.454 10.348 278.846 9.956C279.246 9.564 279.446 9.044 279.446 8.396V5.216C279.446 4.576 279.246 4.06 278.846 3.668C278.454 3.268 277.934 3.068 277.286 3.068C276.646 3.068 276.13 3.268 275.738 3.668C275.346 4.06 275.15 4.576 275.15 5.216V8.396C275.15 9.044 275.346 9.564 275.738 9.956C276.13 10.348 276.646 10.544 277.286 10.544ZM278.03 1.316C277.894 1.316 277.774 1.296 277.67 1.256C277.566 1.208 277.446 1.14 277.31 1.052C277.174 0.964 277.066 0.9 276.986 0.86C276.906 0.82 276.818 0.8 276.722 0.8C276.586 0.8 276.466 0.824 276.362 0.872C276.258 0.919999 276.158 1.004 276.062 1.124C276.014 1.204 275.958 1.212 275.894 1.148L275.738 1.016C275.682 0.96 275.674 0.904 275.714 0.848C275.97 0.48 276.298 0.296 276.698 0.296C276.818 0.296 276.926 0.316 277.022 0.356C277.118 0.396 277.206 0.44 277.286 0.487999C277.366 0.527999 277.418 0.556 277.442 0.572C277.594 0.66 277.71 0.724 277.79 0.763999C277.87 0.803999 277.954 0.823999 278.042 0.823999C278.306 0.823999 278.522 0.704 278.69 0.464C278.738 0.392 278.794 0.384 278.858 0.439999L278.99 0.559999C279.046 0.615999 279.054 0.684 279.014 0.763999C278.902 0.947999 278.754 1.088 278.57 1.184C278.394 1.272 278.214 1.316 278.03 1.316ZM288.086 3.044C288.086 3.124 288.046 3.164 287.966 3.164H283.418C283.386 3.164 283.37 3.18 283.37 3.212V6.452C283.37 6.484 283.386 6.5 283.418 6.5H286.646C286.726 6.5 286.766 6.54 286.766 6.62V6.944C286.766 7.024 286.726 7.064 286.646 7.064H283.418C283.386 7.064 283.37 7.08 283.37 7.112V10.388C283.37 10.42 283.386 10.436 283.418 10.436H287.966C288.046 10.436 288.086 10.476 288.086 10.556V10.88C288.086 10.96 288.046 11 287.966 11H282.854C282.774 11 282.734 10.96 282.734 10.88V2.72C282.734 2.64 282.774 2.6 282.854 2.6H287.966C288.046 2.6 288.086 2.64 288.086 2.72V3.044ZM292.866 11.096C291.986 11.096 291.29 10.9 290.778 10.508C290.266 10.108 290.01 9.576 290.01 8.912V8.516C290.01 8.436 290.05 8.396 290.13 8.396H290.502C290.582 8.396 290.622 8.436 290.622 8.516V8.876C290.622 9.372 290.826 9.772 291.234 10.076C291.642 10.38 292.202 10.532 292.914 10.532C293.578 10.532 294.086 10.396 294.438 10.124C294.79 9.844 294.966 9.46 294.966 8.972C294.966 8.676 294.886 8.42 294.726 8.204C294.574 7.98 294.334 7.772 294.006 7.58C293.686 7.388 293.23 7.168 292.638 6.92C292.014 6.656 291.542 6.436 291.222 6.26C290.91 6.084 290.658 5.864 290.466 5.6C290.274 5.328 290.178 4.98 290.178 4.556C290.178 3.9 290.402 3.396 290.85 3.044C291.306 2.684 291.934 2.504 292.734 2.504C293.606 2.504 294.29 2.704 294.786 3.104C295.282 3.504 295.53 4.04 295.53 4.712V4.988C295.53 5.068 295.49 5.108 295.41 5.108H295.014C294.934 5.108 294.894 5.068 294.894 4.988V4.748C294.894 4.244 294.702 3.84 294.318 3.536C293.934 3.224 293.394 3.068 292.698 3.068C292.09 3.068 291.622 3.196 291.294 3.452C290.966 3.7 290.802 4.06 290.802 4.532C290.802 4.852 290.878 5.112 291.03 5.312C291.182 5.512 291.398 5.688 291.678 5.84C291.966 5.984 292.406 6.176 292.998 6.416C293.59 6.656 294.066 6.888 294.426 7.112C294.794 7.328 295.082 7.584 295.29 7.88C295.498 8.176 295.602 8.532 295.602 8.948C295.602 9.596 295.362 10.116 294.882 10.508C294.402 10.9 293.73 11.096 292.866 11.096Z" fill="black"/>
<path d="M317.252 104C317.18 104 317.132 103.968 317.108 103.904L314.456 95.732L314.444 95.684C314.444 95.628 314.48 95.6 314.552 95.6H314.972C315.044 95.6 315.092 95.632 315.116 95.696L317.444 103.016C317.452 103.032 317.464 103.04 317.48 103.04C317.496 103.04 317.508 103.032 317.516 103.016L319.868 95.696C319.892 95.632 319.94 95.6 320.012 95.6H320.408C320.496 95.6 320.528 95.644 320.504 95.732L317.84 103.904C317.816 103.968 317.768 104 317.696 104H317.252ZM322.785 104C322.705 104 322.665 103.96 322.665 103.88V95.72C322.665 95.64 322.705 95.6 322.785 95.6H323.181C323.261 95.6 323.301 95.64 323.301 95.72V103.88C323.301 103.96 323.261 104 323.181 104H322.785ZM328.555 104.096C327.675 104.096 326.979 103.9 326.467 103.508C325.955 103.108 325.699 102.576 325.699 101.912V101.516C325.699 101.436 325.739 101.396 325.819 101.396H326.191C326.271 101.396 326.311 101.436 326.311 101.516V101.876C326.311 102.372 326.515 102.772 326.923 103.076C327.331 103.38 327.891 103.532 328.603 103.532C329.267 103.532 329.775 103.396 330.127 103.124C330.479 102.844 330.655 102.46 330.655 101.972C330.655 101.676 330.575 101.42 330.415 101.204C330.263 100.98 330.023 100.772 329.695 100.58C329.375 100.388 328.919 100.168 328.327 99.92C327.703 99.656 327.231 99.436 326.911 99.26C326.599 99.084 326.347 98.864 326.155 98.6C325.963 98.328 325.867 97.98 325.867 97.556C325.867 96.9 326.091 96.396 326.539 96.044C326.995 95.684 327.623 95.504 328.423 95.504C329.295 95.504 329.979 95.704 330.475 96.104C330.971 96.504 331.219 97.04 331.219 97.712V97.988C331.219 98.068 331.179 98.108 331.099 98.108H330.703C330.623 98.108 330.583 98.068 330.583 97.988V97.748C330.583 97.244 330.391 96.84 330.007 96.536C329.623 96.224 329.083 96.068 328.387 96.068C327.779 96.068 327.311 96.196 326.983 96.452C326.655 96.7 326.491 97.06 326.491 97.532C326.491 97.852 326.567 98.112 326.719 98.312C326.871 98.512 327.087 98.688 327.367 98.84C327.655 98.984 328.095 99.176 328.687 99.416C329.279 99.656 329.755 99.888 330.115 100.112C330.483 100.328 330.771 100.584 330.979 100.88C331.187 101.176 331.291 101.532 331.291 101.948C331.291 102.596 331.051 103.116 330.571 103.508C330.091 103.9 329.419 104.096 328.555 104.096ZM336.391 104.096C335.839 104.096 335.351 103.988 334.927 103.772C334.511 103.548 334.187 103.236 333.955 102.836C333.723 102.436 333.607 101.976 333.607 101.456V95.72C333.607 95.64 333.647 95.6 333.727 95.6H334.123C334.203 95.6 334.243 95.64 334.243 95.72V101.48C334.243 102.096 334.439 102.592 334.831 102.968C335.231 103.344 335.751 103.532 336.391 103.532C337.039 103.532 337.559 103.344 337.951 102.968C338.343 102.592 338.539 102.096 338.539 101.48V95.72C338.539 95.64 338.579 95.6 338.659 95.6H339.055C339.135 95.6 339.175 95.64 339.175 95.72V101.456C339.175 101.976 339.059 102.436 338.827 102.836C338.595 103.236 338.267 103.548 337.843 103.772C337.427 103.988 336.943 104.096 336.391 104.096ZM346.86 104C346.788 104 346.74 103.968 346.716 103.904L346.2 102.308C346.192 102.284 346.176 102.272 346.152 102.272H342.408C342.384 102.272 342.368 102.284 342.36 102.308L341.856 103.904C341.832 103.968 341.784 104 341.712 104H341.292C341.204 104 341.172 103.956 341.196 103.868L343.86 95.696C343.884 95.632 343.932 95.6 344.004 95.6H344.544C344.616 95.6 344.664 95.632 344.688 95.696L347.364 103.868L347.376 103.916C347.376 103.972 347.34 104 347.268 104H346.86ZM342.552 101.684C342.544 101.7 342.544 101.716 342.552 101.732C342.568 101.74 342.584 101.744 342.6 101.744H345.96C345.976 101.744 345.988 101.74 345.996 101.732C346.012 101.716 346.016 101.7 346.008 101.684L344.316 96.464C344.308 96.448 344.296 96.44 344.28 96.44C344.264 96.44 344.252 96.448 344.244 96.464L342.552 101.684ZM349.642 104C349.562 104 349.522 103.96 349.522 103.88V95.72C349.522 95.64 349.562 95.6 349.642 95.6H350.038C350.118 95.6 350.158 95.64 350.158 95.72V103.388C350.158 103.42 350.174 103.436 350.206 103.436H354.514C354.594 103.436 354.634 103.476 354.634 103.556V103.88C354.634 103.96 354.594 104 354.514 104H349.642ZM356.931 104C356.851 104 356.811 103.96 356.811 103.88V95.72C356.811 95.64 356.851 95.6 356.931 95.6H357.327C357.407 95.6 357.447 95.64 357.447 95.72V103.88C357.447 103.96 357.407 104 357.327 104H356.931ZM359.857 104C359.777 104 359.737 103.96 359.737 103.88V103.496C359.737 103.456 359.753 103.404 359.785 103.34L364.309 96.224C364.317 96.216 364.317 96.204 364.309 96.188C364.301 96.172 364.289 96.164 364.273 96.164H359.857C359.777 96.164 359.737 96.124 359.737 96.044V95.72C359.737 95.64 359.777 95.6 359.857 95.6H364.921C365.001 95.6 365.041 95.64 365.041 95.72V96.104C365.041 96.144 365.025 96.196 364.993 96.26L360.481 103.376C360.473 103.384 360.473 103.396 360.481 103.412C360.489 103.428 360.501 103.436 360.517 103.436H364.921C365.001 103.436 365.041 103.476 365.041 103.556V103.88C365.041 103.96 365.001 104 364.921 104H359.857ZM372.323 104C372.251 104 372.203 103.968 372.179 103.904L371.663 102.308C371.655 102.284 371.639 102.272 371.615 102.272H367.871C367.847 102.272 367.831 102.284 367.823 102.308L367.319 103.904C367.295 103.968 367.247 104 367.175 104H366.755C366.667 104 366.635 103.956 366.659 103.868L369.323 95.696C369.347 95.632 369.395 95.6 369.467 95.6H370.007C370.079 95.6 370.127 95.632 370.151 95.696L372.827 103.868L372.839 103.916C372.839 103.972 372.803 104 372.731 104H372.323ZM368.015 101.684C368.007 101.7 368.007 101.716 368.015 101.732C368.031 101.74 368.047 101.744 368.063 101.744H371.423C371.439 101.744 371.451 101.74 371.459 101.732C371.475 101.716 371.479 101.7 371.471 101.684L369.779 96.464C369.771 96.448 369.759 96.44 369.743 96.44C369.727 96.44 369.715 96.448 369.707 96.464L368.015 101.684ZM380.088 98.108C380.088 98.124 380.076 98.144 380.052 98.168C380.028 98.184 380 98.192 379.968 98.192L379.572 98.216C379.492 98.216 379.452 98.176 379.452 98.096V98.06C379.452 97.46 379.26 96.98 378.876 96.62C378.492 96.252 377.984 96.068 377.352 96.068C376.712 96.068 376.2 96.252 375.816 96.62C375.432 96.98 375.24 97.46 375.24 98.06V101.54C375.24 102.14 375.432 102.624 375.816 102.992C376.208 103.36 376.72 103.544 377.352 103.544C377.984 103.544 378.492 103.36 378.876 102.992C379.26 102.624 379.452 102.14 379.452 101.54V101.516C379.452 101.444 379.492 101.408 379.572 101.408L379.968 101.432C380.048 101.432 380.088 101.468 380.088 101.54C380.088 102.044 379.972 102.492 379.74 102.884C379.516 103.268 379.196 103.568 378.78 103.784C378.364 104 377.888 104.108 377.352 104.108H377.292C377.276 104.108 377.264 104.116 377.256 104.132C377.248 104.148 377.252 104.16 377.268 104.168C377.684 104.528 377.892 104.896 377.892 105.272C377.892 105.368 377.88 105.456 377.856 105.536C377.8 105.784 377.676 105.964 377.484 106.076C377.3 106.196 377.088 106.256 376.848 106.256C376.696 106.256 376.548 106.236 376.404 106.196C376.332 106.188 376.304 106.14 376.32 106.052L376.356 105.884C376.364 105.804 376.412 105.776 376.5 105.8C376.612 105.816 376.696 105.824 376.752 105.824C376.944 105.824 377.096 105.772 377.208 105.668C377.328 105.572 377.388 105.42 377.388 105.212C377.388 104.884 377.188 104.54 376.788 104.18L376.62 104.036L376.596 104.024C375.98 103.888 375.492 103.596 375.132 103.148C374.78 102.7 374.604 102.152 374.604 101.504V98.084C374.604 97.572 374.716 97.124 374.94 96.74C375.172 96.348 375.496 96.044 375.912 95.828C376.328 95.612 376.808 95.504 377.352 95.504C377.888 95.504 378.364 95.612 378.78 95.828C379.196 96.036 379.516 96.332 379.74 96.716C379.972 97.1 380.088 97.544 380.088 98.048V98.108ZM387.58 104C387.508 104 387.46 103.968 387.436 103.904L386.92 102.308C386.912 102.284 386.896 102.272 386.872 102.272H383.128C383.104 102.272 383.088 102.284 383.08 102.308L382.576 103.904C382.552 103.968 382.504 104 382.432 104H382.012C381.924 104 381.892 103.956 381.916 103.868L384.58 95.696C384.604 95.632 384.652 95.6 384.724 95.6H385.264C385.336 95.6 385.384 95.632 385.408 95.696L388.084 103.868L388.096 103.916C388.096 103.972 388.06 104 387.988 104H387.58ZM383.272 101.684C383.264 101.7 383.264 101.716 383.272 101.732C383.288 101.74 383.304 101.744 383.32 101.744H386.68C386.696 101.744 386.708 101.74 386.716 101.732C386.732 101.716 386.736 101.7 386.728 101.684L385.036 96.464C385.028 96.448 385.016 96.44 385 96.44C384.984 96.44 384.972 96.448 384.964 96.464L383.272 101.684ZM385.732 94.316C385.596 94.316 385.476 94.296 385.372 94.256C385.268 94.208 385.148 94.14 385.012 94.052C384.876 93.964 384.768 93.9 384.688 93.86C384.608 93.82 384.52 93.8 384.424 93.8C384.288 93.8 384.168 93.824 384.064 93.872C383.96 93.92 383.86 94.004 383.764 94.124C383.716 94.204 383.66 94.212 383.596 94.148L383.44 94.016C383.384 93.96 383.376 93.904 383.416 93.848C383.672 93.48 384 93.296 384.4 93.296C384.52 93.296 384.628 93.316 384.724 93.356C384.82 93.396 384.908 93.44 384.988 93.488C385.068 93.528 385.12 93.556 385.144 93.572C385.296 93.66 385.412 93.724 385.492 93.764C385.572 93.804 385.656 93.824 385.744 93.824C386.008 93.824 386.224 93.704 386.392 93.464C386.44 93.392 386.496 93.384 386.56 93.44L386.692 93.56C386.748 93.616 386.756 93.684 386.716 93.764C386.604 93.948 386.456 94.088 386.272 94.184C386.096 94.272 385.916 94.316 385.732 94.316ZM392.633 104.096C392.081 104.096 391.593 103.984 391.169 103.76C390.753 103.528 390.429 103.208 390.197 102.8C389.973 102.384 389.861 101.908 389.861 101.372V98.228C389.861 97.692 389.973 97.22 390.197 96.812C390.429 96.396 390.753 96.076 391.169 95.852C391.593 95.62 392.081 95.504 392.633 95.504C393.185 95.504 393.673 95.62 394.097 95.852C394.521 96.076 394.849 96.396 395.081 96.812C395.313 97.22 395.429 97.692 395.429 98.228V101.372C395.429 101.908 395.313 102.384 395.081 102.8C394.849 103.208 394.521 103.528 394.097 103.76C393.673 103.984 393.185 104.096 392.633 104.096ZM392.633 103.544C393.281 103.544 393.801 103.348 394.193 102.956C394.593 102.564 394.793 102.044 394.793 101.396V98.216C394.793 97.576 394.593 97.06 394.193 96.668C393.801 96.268 393.281 96.068 392.633 96.068C391.993 96.068 391.477 96.268 391.085 96.668C390.693 97.06 390.497 97.576 390.497 98.216V101.396C390.497 102.044 390.693 102.564 391.085 102.956C391.477 103.348 391.993 103.544 392.633 103.544ZM404.756 100.04C404.916 100.448 404.996 100.924 404.996 101.468C404.996 101.9 404.94 102.284 404.828 102.62C404.676 103.1 404.416 103.468 404.048 103.724C403.688 103.972 403.236 104.096 402.692 104.096C402.14 104.096 401.672 103.952 401.288 103.664C400.912 103.368 400.652 102.976 400.508 102.488C400.428 102.248 400.388 101.956 400.388 101.612C400.388 101.532 400.428 101.492 400.508 101.492H400.916C400.996 101.492 401.036 101.532 401.036 101.612C401.036 101.884 401.06 102.104 401.108 102.272C401.188 102.656 401.368 102.964 401.648 103.196C401.928 103.42 402.276 103.532 402.692 103.532C403.468 103.532 403.972 103.18 404.204 102.476C404.308 102.18 404.36 101.84 404.36 101.456C404.36 100.96 404.288 100.544 404.144 100.208C403.888 99.584 403.4 99.272 402.68 99.272C402.584 99.272 402.464 99.296 402.32 99.344L402.272 99.368C402.264 99.376 402.252 99.38 402.236 99.38C402.196 99.38 402.164 99.36 402.14 99.32L401.936 99.056C401.92 99.024 401.912 99 401.912 98.984C401.912 98.944 401.924 98.912 401.948 98.888L404.096 96.224C404.112 96.208 404.116 96.196 404.108 96.188C404.1 96.172 404.088 96.164 404.072 96.164H400.556C400.476 96.164 400.436 96.124 400.436 96.044V95.72C400.436 95.64 400.476 95.6 400.556 95.6H404.84C404.92 95.6 404.96 95.64 404.96 95.72V96.116C404.96 96.172 404.944 96.22 404.912 96.26L402.908 98.78C402.892 98.796 402.888 98.812 402.896 98.828C402.904 98.836 402.92 98.84 402.944 98.84C403.392 98.856 403.768 98.968 404.072 99.176C404.376 99.376 404.604 99.664 404.756 100.04ZM407.669 104C407.589 104 407.549 103.96 407.549 103.88V95.72C407.549 95.64 407.589 95.6 407.669 95.6H410.453C411.221 95.6 411.829 95.804 412.277 96.212C412.725 96.612 412.949 97.16 412.949 97.856V101.744C412.949 102.44 412.725 102.992 412.277 103.4C411.829 103.8 411.221 104 410.453 104H407.669ZM408.185 103.388C408.185 103.42 408.201 103.436 408.233 103.436H410.489C411.049 103.436 411.489 103.28 411.809 102.968C412.137 102.648 412.305 102.216 412.313 101.672V97.928C412.313 97.384 412.149 96.956 411.821 96.644C411.501 96.324 411.057 96.164 410.489 96.164H408.233C408.201 96.164 408.185 96.18 408.185 96.212V103.388Z" fill="black"/>
<path d="M426.344 11C426.264 11 426.224 10.96 426.224 10.88V2.72C426.224 2.64 426.264 2.6 426.344 2.6H426.74C426.82 2.6 426.86 2.64 426.86 2.72V10.88C426.86 10.96 426.82 11 426.74 11H426.344ZM435.258 2.684C435.298 2.628 435.346 2.6 435.402 2.6H435.81C435.89 2.6 435.93 2.64 435.93 2.72V10.88C435.93 10.96 435.89 11 435.81 11H435.414C435.334 11 435.294 10.96 435.294 10.88V3.836C435.294 3.812 435.286 3.8 435.27 3.8C435.254 3.792 435.242 3.8 435.234 3.824L433.122 7.088C433.082 7.144 433.034 7.172 432.978 7.172H432.774C432.718 7.172 432.67 7.144 432.63 7.088L430.494 3.836C430.486 3.812 430.474 3.804 430.458 3.812C430.442 3.82 430.434 3.836 430.434 3.86V10.88C430.434 10.96 430.394 11 430.314 11H429.918C429.838 11 429.798 10.96 429.798 10.88V2.72C429.798 2.64 429.838 2.6 429.918 2.6H430.338C430.394 2.6 430.442 2.628 430.482 2.684L432.834 6.284C432.842 6.292 432.854 6.296 432.87 6.296C432.886 6.296 432.898 6.292 432.906 6.284L435.258 2.684ZM444.328 2.684C444.368 2.628 444.416 2.6 444.472 2.6H444.88C444.96 2.6 445 2.64 445 2.72V10.88C445 10.96 444.96 11 444.88 11H444.484C444.404 11 444.364 10.96 444.364 10.88V3.836C444.364 3.812 444.356 3.8 444.34 3.8C444.324 3.792 444.312 3.8 444.304 3.824L442.192 7.088C442.152 7.144 442.104 7.172 442.048 7.172H441.844C441.788 7.172 441.74 7.144 441.7 7.088L439.564 3.836C439.556 3.812 439.544 3.804 439.528 3.812C439.512 3.82 439.504 3.836 439.504 3.86V10.88C439.504 10.96 439.464 11 439.384 11H438.988C438.908 11 438.868 10.96 438.868 10.88V2.72C438.868 2.64 438.908 2.6 438.988 2.6H439.408C439.464 2.6 439.512 2.628 439.552 2.684L441.904 6.284C441.912 6.292 441.924 6.296 441.94 6.296C441.956 6.296 441.968 6.292 441.976 6.284L444.328 2.684ZM453.289 3.044C453.289 3.124 453.249 3.164 453.169 3.164H448.621C448.589 3.164 448.573 3.18 448.573 3.212V6.452C448.573 6.484 448.589 6.5 448.621 6.5H451.849C451.929 6.5 451.969 6.54 451.969 6.62V6.944C451.969 7.024 451.929 7.064 451.849 7.064H448.621C448.589 7.064 448.573 7.08 448.573 7.112V10.388C448.573 10.42 448.589 10.436 448.621 10.436H453.169C453.249 10.436 453.289 10.476 453.289 10.556V10.88C453.289 10.96 453.249 11 453.169 11H448.057C447.977 11 447.937 10.96 447.937 10.88V2.72C447.937 2.64 447.977 2.6 448.057 2.6H453.169C453.249 2.6 453.289 2.64 453.289 2.72V3.044ZM460.733 11C460.661 11 460.613 10.972 460.589 10.916L458.753 7.1C458.745 7.076 458.729 7.064 458.705 7.064H456.437C456.405 7.064 456.389 7.08 456.389 7.112V10.88C456.389 10.96 456.349 11 456.269 11H455.873C455.793 11 455.753 10.96 455.753 10.88V2.72C455.753 2.64 455.793 2.6 455.873 2.6H458.897C459.569 2.6 460.109 2.808 460.517 3.224C460.933 3.64 461.141 4.184 461.141 4.856C461.141 5.424 460.985 5.904 460.673 6.296C460.361 6.68 459.941 6.92 459.413 7.016C459.373 7.032 459.361 7.052 459.377 7.076L461.213 10.856C461.221 10.872 461.225 10.892 461.225 10.916C461.225 10.972 461.193 11 461.129 11H460.733ZM456.437 3.164C456.405 3.164 456.389 3.18 456.389 3.212V6.488C456.389 6.52 456.405 6.536 456.437 6.536H458.837C459.333 6.536 459.733 6.38 460.037 6.068C460.349 5.756 460.505 5.352 460.505 4.856C460.505 4.352 460.349 3.944 460.037 3.632C459.733 3.32 459.333 3.164 458.837 3.164H456.437ZM465.897 11.096C465.017 11.096 464.321 10.9 463.809 10.508C463.297 10.108 463.041 9.576 463.041 8.912V8.516C463.041 8.436 463.081 8.396 463.161 8.396H463.533C463.613 8.396 463.653 8.436 463.653 8.516V8.876C463.653 9.372 463.857 9.772 464.265 10.076C464.673 10.38 465.233 10.532 465.945 10.532C466.609 10.532 467.117 10.396 467.469 10.124C467.821 9.844 467.997 9.46 467.997 8.972C467.997 8.676 467.917 8.42 467.757 8.204C467.605 7.98 467.365 7.772 467.037 7.58C466.717 7.388 466.261 7.168 465.669 6.92C465.045 6.656 464.573 6.436 464.253 6.26C463.941 6.084 463.689 5.864 463.497 5.6C463.305 5.328 463.209 4.98 463.209 4.556C463.209 3.9 463.433 3.396 463.881 3.044C464.337 2.684 464.965 2.504 465.765 2.504C466.637 2.504 467.321 2.704 467.817 3.104C468.313 3.504 468.561 4.04 468.561 4.712V4.988C468.561 5.068 468.521 5.108 468.441 5.108H468.045C467.965 5.108 467.925 5.068 467.925 4.988V4.748C467.925 4.244 467.733 3.84 467.349 3.536C466.965 3.224 466.425 3.068 465.729 3.068C465.121 3.068 464.653 3.196 464.325 3.452C463.997 3.7 463.833 4.06 463.833 4.532C463.833 4.852 463.909 5.112 464.061 5.312C464.213 5.512 464.429 5.688 464.709 5.84C464.997 5.984 465.437 6.176 466.029 6.416C466.621 6.656 467.097 6.888 467.457 7.112C467.825 7.328 468.113 7.584 468.321 7.88C468.529 8.176 468.633 8.532 468.633 8.948C468.633 9.596 468.393 10.116 467.913 10.508C467.433 10.9 466.761 11.096 465.897 11.096ZM471.165 11C471.085 11 471.045 10.96 471.045 10.88V2.72C471.045 2.64 471.085 2.6 471.165 2.6H471.561C471.641 2.6 471.681 2.64 471.681 2.72V10.88C471.681 10.96 471.641 11 471.561 11H471.165ZM476.647 11C476.575 11 476.527 10.968 476.503 10.904L473.851 2.732L473.839 2.684C473.839 2.628 473.875 2.6 473.947 2.6H474.367C474.439 2.6 474.487 2.632 474.511 2.696L476.839 10.016C476.847 10.032 476.859 10.04 476.875 10.04C476.891 10.04 476.903 10.032 476.911 10.016L479.263 2.696C479.287 2.632 479.335 2.6 479.407 2.6H479.803C479.891 2.6 479.923 2.644 479.899 2.732L477.235 10.904C477.211 10.968 477.163 11 477.091 11H476.647ZM487.225 3.044C487.225 3.124 487.185 3.164 487.105 3.164H482.557C482.525 3.164 482.509 3.18 482.509 3.212V6.452C482.509 6.484 482.525 6.5 482.557 6.5H485.785C485.865 6.5 485.905 6.54 485.905 6.62V6.944C485.905 7.024 485.865 7.064 485.785 7.064H482.557C482.525 7.064 482.509 7.08 482.509 7.112V10.388C482.509 10.42 482.525 10.436 482.557 10.436H487.105C487.185 10.436 487.225 10.476 487.225 10.556V10.88C487.225 10.96 487.185 11 487.105 11H481.993C481.913 11 481.873 10.96 481.873 10.88V2.72C481.873 2.64 481.913 2.6 481.993 2.6H487.105C487.185 2.6 487.225 2.64 487.225 2.72V3.044ZM495.043 11.108C494.499 11.108 494.019 11 493.603 10.784C493.187 10.568 492.863 10.264 492.631 9.872C492.407 9.472 492.295 9.016 492.295 8.504V5.084C492.295 4.572 492.407 4.124 492.631 3.74C492.863 3.348 493.187 3.044 493.603 2.828C494.019 2.612 494.499 2.504 495.043 2.504C495.579 2.504 496.055 2.612 496.471 2.828C496.887 3.036 497.207 3.332 497.431 3.716C497.663 4.1 497.779 4.544 497.779 5.048V5.06C497.779 5.1 497.767 5.132 497.743 5.156C497.719 5.18 497.691 5.192 497.659 5.192L497.263 5.216C497.183 5.216 497.143 5.176 497.143 5.096V5.06C497.143 4.46 496.951 3.98 496.567 3.62C496.183 3.252 495.675 3.068 495.043 3.068C494.403 3.068 493.891 3.252 493.507 3.62C493.123 3.98 492.931 4.46 492.931 5.06V8.54C492.931 9.14 493.123 9.624 493.507 9.992C493.899 10.36 494.411 10.544 495.043 10.544C495.675 10.544 496.183 10.36 496.567 9.992C496.951 9.624 497.143 9.14 497.143 8.54V8.516C497.143 8.444 497.183 8.408 497.263 8.408L497.659 8.432C497.739 8.432 497.779 8.468 497.779 8.54C497.779 9.044 497.663 9.492 497.431 9.884C497.207 10.268 496.887 10.568 496.471 10.784C496.055 11 495.579 11.108 495.043 11.108ZM502.836 11.096C502.284 11.096 501.796 10.984 501.372 10.76C500.956 10.528 500.632 10.208 500.4 9.8C500.176 9.384 500.064 8.908 500.064 8.372V5.228C500.064 4.692 500.176 4.22 500.4 3.812C500.632 3.396 500.956 3.076 501.372 2.852C501.796 2.62 502.284 2.504 502.836 2.504C503.388 2.504 503.876 2.62 504.3 2.852C504.724 3.076 505.052 3.396 505.284 3.812C505.516 4.22 505.632 4.692 505.632 5.228V8.372C505.632 8.908 505.516 9.384 505.284 9.8C505.052 10.208 504.724 10.528 504.3 10.76C503.876 10.984 503.388 11.096 502.836 11.096ZM502.836 10.544C503.484 10.544 504.004 10.348 504.396 9.956C504.796 9.564 504.996 9.044 504.996 8.396V5.216C504.996 4.576 504.796 4.06 504.396 3.668C504.004 3.268 503.484 3.068 502.836 3.068C502.196 3.068 501.68 3.268 501.288 3.668C500.896 4.06 500.7 4.576 500.7 5.216V8.396C500.7 9.044 500.896 9.564 501.288 9.956C501.68 10.348 502.196 10.544 502.836 10.544ZM513.745 2.684C513.785 2.628 513.833 2.6 513.889 2.6H514.297C514.377 2.6 514.417 2.64 514.417 2.72V10.88C514.417 10.96 514.377 11 514.297 11H513.901C513.821 11 513.781 10.96 513.781 10.88V3.836C513.781 3.812 513.773 3.8 513.757 3.8C513.741 3.792 513.729 3.8 513.721 3.824L511.609 7.088C511.569 7.144 511.521 7.172 511.465 7.172H511.261C511.205 7.172 511.157 7.144 511.117 7.088L508.981 3.836C508.973 3.812 508.961 3.804 508.945 3.812C508.929 3.82 508.921 3.836 508.921 3.86V10.88C508.921 10.96 508.881 11 508.801 11H508.405C508.325 11 508.285 10.96 508.285 10.88V2.72C508.285 2.64 508.325 2.6 508.405 2.6H508.825C508.881 2.6 508.929 2.628 508.969 2.684L511.321 6.284C511.329 6.292 511.341 6.296 511.357 6.296C511.373 6.296 511.385 6.292 511.393 6.284L513.745 2.684ZM522.815 2.684C522.855 2.628 522.903 2.6 522.959 2.6H523.367C523.447 2.6 523.487 2.64 523.487 2.72V10.88C523.487 10.96 523.447 11 523.367 11H522.971C522.891 11 522.851 10.96 522.851 10.88V3.836C522.851 3.812 522.843 3.8 522.827 3.8C522.811 3.792 522.799 3.8 522.791 3.824L520.679 7.088C520.639 7.144 520.591 7.172 520.535 7.172H520.331C520.275 7.172 520.227 7.144 520.187 7.088L518.051 3.836C518.043 3.812 518.031 3.804 518.015 3.812C517.999 3.82 517.991 3.836 517.991 3.86V10.88C517.991 10.96 517.951 11 517.871 11H517.475C517.395 11 517.355 10.96 517.355 10.88V2.72C517.355 2.64 517.395 2.6 517.475 2.6H517.895C517.951 2.6 517.999 2.628 518.039 2.684L520.391 6.284C520.399 6.292 520.411 6.296 520.427 6.296C520.443 6.296 520.455 6.292 520.463 6.284L522.815 2.684ZM531.776 3.044C531.776 3.124 531.736 3.164 531.656 3.164H527.108C527.076 3.164 527.06 3.18 527.06 3.212V6.452C527.06 6.484 527.076 6.5 527.108 6.5H530.336C530.416 6.5 530.456 6.54 530.456 6.62V6.944C530.456 7.024 530.416 7.064 530.336 7.064H527.108C527.076 7.064 527.06 7.08 527.06 7.112V10.388C527.06 10.42 527.076 10.436 527.108 10.436H531.656C531.736 10.436 531.776 10.476 531.776 10.556V10.88C531.776 10.96 531.736 11 531.656 11H526.544C526.464 11 526.424 10.96 526.424 10.88V2.72C526.424 2.64 526.464 2.6 526.544 2.6H531.656C531.736 2.6 531.776 2.64 531.776 2.72V3.044ZM539.22 11C539.148 11 539.1 10.972 539.076 10.916L537.24 7.1C537.232 7.076 537.216 7.064 537.192 7.064H534.924C534.892 7.064 534.876 7.08 534.876 7.112V10.88C534.876 10.96 534.836 11 534.756 11H534.36C534.28 11 534.24 10.96 534.24 10.88V2.72C534.24 2.64 534.28 2.6 534.36 2.6H537.384C538.056 2.6 538.596 2.808 539.004 3.224C539.42 3.64 539.628 4.184 539.628 4.856C539.628 5.424 539.472 5.904 539.16 6.296C538.848 6.68 538.428 6.92 537.9 7.016C537.86 7.032 537.848 7.052 537.864 7.076L539.7 10.856C539.708 10.872 539.712 10.892 539.712 10.916C539.712 10.972 539.68 11 539.616 11H539.22ZM534.924 3.164C534.892 3.164 534.876 3.18 534.876 3.212V6.488C534.876 6.52 534.892 6.536 534.924 6.536H537.324C537.82 6.536 538.22 6.38 538.524 6.068C538.836 5.756 538.992 5.352 538.992 4.856C538.992 4.352 538.836 3.944 538.524 3.632C538.22 3.32 537.82 3.164 537.324 3.164H534.924ZM544.54 11.108C543.996 11.108 543.516 11 543.1 10.784C542.684 10.568 542.36 10.264 542.128 9.872C541.904 9.472 541.792 9.016 541.792 8.504V5.084C541.792 4.572 541.904 4.124 542.128 3.74C542.36 3.348 542.684 3.044 543.1 2.828C543.516 2.612 543.996 2.504 544.54 2.504C545.076 2.504 545.552 2.612 545.968 2.828C546.384 3.036 546.704 3.332 546.928 3.716C547.16 4.1 547.276 4.544 547.276 5.048V5.06C547.276 5.1 547.264 5.132 547.24 5.156C547.216 5.18 547.188 5.192 547.156 5.192L546.76 5.216C546.68 5.216 546.64 5.176 546.64 5.096V5.06C546.64 4.46 546.448 3.98 546.064 3.62C545.68 3.252 545.172 3.068 544.54 3.068C543.9 3.068 543.388 3.252 543.004 3.62C542.62 3.98 542.428 4.46 542.428 5.06V8.54C542.428 9.14 542.62 9.624 543.004 9.992C543.396 10.36 543.908 10.544 544.54 10.544C545.172 10.544 545.68 10.36 546.064 9.992C546.448 9.624 546.64 9.14 546.64 8.54V8.516C546.64 8.444 546.68 8.408 546.76 8.408L547.156 8.432C547.236 8.432 547.276 8.468 547.276 8.54C547.276 9.044 547.16 9.492 546.928 9.884C546.704 10.268 546.384 10.568 545.968 10.784C545.552 11 545.076 11.108 544.54 11.108ZM555.189 3.044C555.189 3.124 555.149 3.164 555.069 3.164H550.521C550.489 3.164 550.473 3.18 550.473 3.212V6.452C550.473 6.484 550.489 6.5 550.521 6.5H553.749C553.829 6.5 553.869 6.54 553.869 6.62V6.944C553.869 7.024 553.829 7.064 553.749 7.064H550.521C550.489 7.064 550.473 7.08 550.473 7.112V10.388C550.473 10.42 550.489 10.436 550.521 10.436H555.069C555.149 10.436 555.189 10.476 555.189 10.556V10.88C555.189 10.96 555.149 11 555.069 11H549.957C549.877 11 549.837 10.96 549.837 10.88V2.72C549.837 2.64 549.877 2.6 549.957 2.6H555.069C555.149 2.6 555.189 2.64 555.189 2.72V3.044Z" fill="black"/>
<path d="M591.096 95.6C591.176 95.6 591.216 95.64 591.216 95.72V96.044C591.216 96.124 591.176 96.164 591.096 96.164H588.696C588.664 96.164 588.648 96.18 588.648 96.212V103.88C588.648 103.96 588.608 104 588.528 104H588.132C588.052 104 588.012 103.96 588.012 103.88V96.212C588.012 96.18 587.996 96.164 587.964 96.164H585.684C585.604 96.164 585.564 96.124 585.564 96.044V95.72C585.564 95.64 585.604 95.6 585.684 95.6H591.096ZM598.469 104C598.397 104 598.349 103.972 598.325 103.916L596.489 100.1C596.481 100.076 596.465 100.064 596.441 100.064H594.173C594.141 100.064 594.125 100.08 594.125 100.112V103.88C594.125 103.96 594.085 104 594.005 104H593.609C593.529 104 593.489 103.96 593.489 103.88V95.72C593.489 95.64 593.529 95.6 593.609 95.6H596.633C597.305 95.6 597.845 95.808 598.253 96.224C598.669 96.64 598.877 97.184 598.877 97.856C598.877 98.424 598.721 98.904 598.409 99.296C598.097 99.68 597.677 99.92 597.149 100.016C597.109 100.032 597.097 100.052 597.113 100.076L598.949 103.856C598.957 103.872 598.961 103.892 598.961 103.916C598.961 103.972 598.929 104 598.865 104H598.469ZM594.173 96.164C594.141 96.164 594.125 96.18 594.125 96.212V99.488C594.125 99.52 594.141 99.536 594.173 99.536H596.573C597.069 99.536 597.469 99.38 597.773 99.068C598.085 98.756 598.241 98.352 598.241 97.856C598.241 97.352 598.085 96.944 597.773 96.632C597.469 96.32 597.069 96.164 596.573 96.164H594.173ZM603.143 104C603.063 104 603.023 103.96 603.023 103.88V100.184C603.023 100.152 603.019 100.132 603.011 100.124L600.503 95.744C600.487 95.712 600.479 95.688 600.479 95.672C600.479 95.624 600.515 95.6 600.587 95.6H600.995C601.051 95.6 601.099 95.628 601.139 95.684L603.299 99.452C603.307 99.46 603.319 99.464 603.335 99.464C603.351 99.464 603.363 99.46 603.371 99.452L605.531 95.684C605.571 95.628 605.619 95.6 605.675 95.6H606.083C606.131 95.6 606.163 95.616 606.179 95.648C606.195 95.672 606.191 95.704 606.167 95.744L603.659 100.124C603.651 100.132 603.647 100.152 603.647 100.184V103.88C603.647 103.96 603.607 104 603.527 104H603.143ZM613.738 104.096C613.186 104.096 612.698 103.984 612.274 103.76C611.858 103.528 611.534 103.208 611.302 102.8C611.078 102.384 610.966 101.908 610.966 101.372V98.228C610.966 97.692 611.078 97.22 611.302 96.812C611.534 96.396 611.858 96.076 612.274 95.852C612.698 95.62 613.186 95.504 613.738 95.504C614.29 95.504 614.778 95.62 615.202 95.852C615.626 96.076 615.954 96.396 616.186 96.812C616.418 97.22 616.534 97.692 616.534 98.228V101.372C616.534 101.908 616.418 102.384 616.186 102.8C615.954 103.208 615.626 103.528 615.202 103.76C614.778 103.984 614.29 104.096 613.738 104.096ZM613.738 103.544C614.386 103.544 614.906 103.348 615.298 102.956C615.698 102.564 615.898 102.044 615.898 101.396V98.216C615.898 97.576 615.698 97.06 615.298 96.668C614.906 96.268 614.386 96.068 613.738 96.068C613.098 96.068 612.582 96.268 612.19 96.668C611.798 97.06 611.602 97.576 611.602 98.216V101.396C611.602 102.044 611.798 102.564 612.19 102.956C612.582 103.348 613.098 103.544 613.738 103.544ZM624.251 95.72C624.251 95.64 624.291 95.6 624.371 95.6H624.767C624.847 95.6 624.887 95.64 624.887 95.72V103.88C624.887 103.96 624.847 104 624.767 104H624.371C624.315 104 624.267 103.972 624.227 103.916L619.883 96.872C619.875 96.848 619.863 96.84 619.847 96.848C619.831 96.848 619.823 96.86 619.823 96.884V103.88C619.823 103.96 619.783 104 619.703 104H619.307C619.227 104 619.187 103.96 619.187 103.88V95.72C619.187 95.64 619.227 95.6 619.307 95.6H619.715C619.771 95.6 619.819 95.628 619.859 95.684L624.191 102.728C624.199 102.752 624.211 102.764 624.227 102.764C624.243 102.756 624.251 102.74 624.251 102.716V95.72Z" fill="black"/>
</svg>
